<svg width="24" height="24" viewBox="0 0 24 24" fill="none" xmlns="http://www.w3.org/2000/svg">
<path d="M9.34706 16.2668V6.41979C9.34706 5.08779 8.26806 4.00879 6.93606 4.00879V4.00879C5.83706 4.00879 4.87806 4.75179 4.60206 5.81479L2.11206 15.4248" stroke="#667085" stroke-width="1.5" stroke-linecap="round" stroke-linejoin="round"/>
<path d="M8.27191 13.7284C9.7067 15.1632 9.7067 17.4895 8.27191 18.9243C6.83712 20.359 4.51088 20.359 3.07609 18.9243C1.6413 17.4895 1.6413 15.1632 3.07609 13.7284C4.51088 12.2936 6.83712 12.2936 8.27191 13.7284" stroke="#667085" stroke-width="1.5"/>
<path d="M14.6528 16.2668V6.41979C14.6528 5.08779 15.7318 4.00879 17.0638 4.00879V4.00879C18.1628 4.00879 19.1218 4.75179 19.3978 5.81479L21.8878 15.4248" stroke="#667085" stroke-width="1.5" stroke-linecap="round" stroke-linejoin="round"/>
<path d="M14.6529 9.9998C14.6529 8.5318 13.4649 7.3418 11.9999 7.3418C10.5349 7.3418 9.34692 8.5318 9.34692 9.9998" stroke="#667085" stroke-width="1.5" stroke-linecap="round" stroke-linejoin="round"/>
<path d="M9.34692 15.9998C9.34692 14.5318 10.5349 13.3418 11.9999 13.3418C13.4649 13.3418 14.6529 14.5318 14.6529 15.9998" stroke="#667085" stroke-width="1.5" stroke-linecap="round" stroke-linejoin="round"/>
<path d="M20.924 13.7284C22.3588 15.1632 22.3588 17.4895 20.924 18.9243C19.4892 20.359 17.163 20.359 15.7282 18.9243C14.2934 17.4895 14.2934 15.1632 15.7282 13.7284C17.163 12.2936 19.4892 12.2936 20.924 13.7284" stroke="#667085" stroke-width="1.5"/>
</svg>
